<svg width="198" height="17" viewBox="0 0 198 17" fill="none" xmlns="http://www.w3.org/2000/svg">
<path d="M9.22803 9.78662V13.4976H10.9126C11.5148 13.4976 11.9421 13.6156 12.1943 13.8516C12.4548 14.0794 12.585 14.3805 12.585 14.7549C12.585 15.1211 12.4548 15.4222 12.1943 15.6582C11.9421 15.8861 11.5148 16 10.9126 16H5.04102C4.44694 16 4.01969 15.8861 3.75928 15.6582C3.507 15.4222 3.38086 15.117 3.38086 14.7427C3.38086 14.3765 3.507 14.0794 3.75928 13.8516C4.01969 13.6156 4.44694 13.4976 5.04102 13.4976H6.72559V9.78662L2.5874 3.70752C2.03402 3.70752 1.62712 3.58952 1.3667 3.35352C1.11442 3.11751 0.988281 2.81641 0.988281 2.4502C0.988281 2.07585 1.11442 1.77474 1.3667 1.54688C1.62712 1.31087 2.05843 1.19287 2.66064 1.19287L4.93115 1.20508C5.53337 1.20508 5.96061 1.31901 6.21289 1.54688C6.47331 1.77474 6.60352 2.07585 6.60352 2.4502C6.60352 3.01172 6.27393 3.43083 5.61475 3.70752L7.98291 7.19873L10.3022 3.70752C9.93604 3.56917 9.67562 3.39421 9.521 3.18262C9.36637 2.97103 9.28906 2.72689 9.28906 2.4502C9.28906 2.07585 9.4152 1.77474 9.66748 1.54688C9.9279 1.31901 10.3592 1.20101 10.9614 1.19287L13.3174 1.20508C13.9196 1.20508 14.3468 1.31901 14.5991 1.54688C14.8595 1.77474 14.9897 2.07585 14.9897 2.4502C14.9897 2.82454 14.8595 3.12972 14.5991 3.36572C14.3387 3.59359 13.9155 3.70752 13.3296 3.70752L9.22803 9.78662ZM30.0044 8.60254C30.0044 10.8242 29.2964 12.6756 27.8804 14.1567C26.4725 15.6297 24.8408 16.3662 22.9854 16.3662C21.3171 16.3662 19.8115 15.7518 18.4688 14.5229C16.8086 13.0011 15.9785 11.0277 15.9785 8.60254C15.9785 6.17741 16.8086 4.19987 18.4688 2.66992C19.8115 1.44108 21.3171 0.82666 22.9854 0.82666C24.8408 0.82666 26.4725 1.56722 27.8804 3.04834C29.2964 4.52132 30.0044 6.37272 30.0044 8.60254ZM27.502 8.60254C27.502 7.08073 27.0422 5.8234 26.1226 4.83057C25.203 3.82959 24.1572 3.3291 22.9854 3.3291C21.8216 3.3291 20.7799 3.82959 19.8604 4.83057C18.9408 5.83154 18.481 7.08887 18.481 8.60254C18.481 10.1162 18.9408 11.3735 19.8604 12.3745C20.7799 13.3674 21.8216 13.8638 22.9854 13.8638C24.1572 13.8638 25.203 13.3674 26.1226 12.3745C27.0422 11.3817 27.502 10.1243 27.502 8.60254ZM34.0815 6.03906V13.4976H34.9849C35.5871 13.4976 36.0143 13.6156 36.2666 13.8516C36.527 14.0794 36.6572 14.3805 36.6572 14.7549C36.6572 15.1211 36.527 15.4222 36.2666 15.6582C36.0143 15.8861 35.5871 16 34.9849 16H31.7012C31.099 16 30.6717 15.8861 30.4194 15.6582C30.159 15.4222 30.0288 15.117 30.0288 14.7427C30.0288 14.3765 30.1549 14.0794 30.4072 13.8516C30.6595 13.6156 31.0501 13.4976 31.5791 13.4976V3.70752C31.1396 3.66683 30.806 3.53255 30.5781 3.30469C30.3584 3.07682 30.2485 2.79199 30.2485 2.4502C30.2485 2.07585 30.3747 1.77474 30.627 1.54688C30.8874 1.31087 31.3187 1.19287 31.9209 1.19287L34.6675 1.20508L38.0732 8.73682L41.418 1.19287L44.189 1.20508C44.7912 1.20508 45.2184 1.31901 45.4707 1.54688C45.7311 1.77474 45.8613 2.07585 45.8613 2.4502C45.8613 2.79199 45.7474 3.07682 45.5195 3.30469C45.2917 3.53255 44.9621 3.66683 44.5308 3.70752V13.4976C45.0597 13.4976 45.4504 13.6156 45.7026 13.8516C45.9549 14.0876 46.0811 14.3887 46.0811 14.7549C46.0811 15.1211 45.9508 15.4222 45.6904 15.6582C45.4382 15.8861 45.0109 16 44.4087 16H41.1128C40.5187 16 40.0915 15.8861 39.8311 15.6582C39.5788 15.4222 39.4526 15.117 39.4526 14.7427C39.4526 14.3765 39.5788 14.0794 39.8311 13.8516C40.0915 13.6156 40.5187 13.4976 41.1128 13.4976H42.0283V6.03906L39.1597 12.4844H36.9868L34.0815 6.03906ZM49.8774 5.9292V13.4976H50.7808C51.383 13.4976 51.8102 13.6156 52.0625 13.8516C52.3229 14.0794 52.4531 14.3805 52.4531 14.7549C52.4531 15.1211 52.3229 15.4222 52.0625 15.6582C51.8102 15.8861 51.383 16 50.7808 16H47.4971C46.8949 16 46.4635 15.8861 46.2031 15.6582C45.9508 15.4222 45.8247 15.117 45.8247 14.7427C45.8247 14.3846 45.9508 14.0876 46.2031 13.8516C46.4554 13.6156 46.846 13.4976 47.375 13.4976V3.70752H46.9844C46.3822 3.70752 45.9508 3.59359 45.6904 3.36572C45.4382 3.12972 45.312 2.82454 45.312 2.4502C45.312 2.07585 45.4382 1.77474 45.6904 1.54688C45.9508 1.31087 46.3822 1.19287 46.9844 1.19287L49.8774 1.20508L56.2739 11.2393V3.70752H55.3706C54.7684 3.70752 54.3371 3.59359 54.0767 3.36572C53.8244 3.12972 53.6982 2.82454 53.6982 2.4502C53.6982 2.07585 53.8244 1.77474 54.0767 1.54688C54.3371 1.31087 54.7684 1.19287 55.3706 1.19287L58.6543 1.20508C59.2565 1.20508 59.6838 1.31901 59.936 1.54688C60.1965 1.77474 60.3267 2.07585 60.3267 2.4502C60.3267 2.81641 60.2005 3.11751 59.9482 3.35352C59.696 3.58952 59.3094 3.70752 58.7886 3.70752V16H56.3105L49.8774 5.9292ZM71.0811 11.9717H65.002L64.3916 13.4976H65.002C65.6042 13.4976 66.0314 13.6156 66.2837 13.8516C66.5441 14.0794 66.6743 14.3805 66.6743 14.7549C66.6743 15.1211 66.5441 15.4222 66.2837 15.6582C66.0314 15.8861 65.6042 16 65.002 16H61.6328C61.0306 16 60.6034 15.8861 60.3511 15.6582C60.0907 15.4222 59.9604 15.117 59.9604 14.7427C59.9604 14.3683 60.0947 14.0632 60.3633 13.8271C60.6318 13.5911 61.0754 13.4813 61.6938 13.4976L65.6245 3.70752H63.9888C63.3866 3.70752 62.9552 3.59359 62.6948 3.36572C62.4425 3.12972 62.3164 2.82454 62.3164 2.4502C62.3164 2.07585 62.4425 1.77474 62.6948 1.54688C62.9552 1.31087 63.3866 1.19287 63.9888 1.19287L69.3965 1.20508L74.377 13.4976C74.9629 13.4976 75.3494 13.5627 75.5366 13.6929C75.911 13.9614 76.0981 14.3154 76.0981 14.7549C76.0981 15.1211 75.972 15.4222 75.7197 15.6582C75.4674 15.8861 75.0402 16 74.438 16H71.0688C70.4666 16 70.0353 15.8861 69.7749 15.6582C69.5226 15.4222 69.3965 15.117 69.3965 14.7427C69.3965 14.3765 69.5226 14.0794 69.7749 13.8516C70.0353 13.6156 70.4666 13.4976 71.0688 13.4976H71.6792L71.0811 11.9717ZM70.0435 9.46924L68.0293 4.51318L66.0029 9.46924H70.0435Z" fill="#B3B3B3"/>
<path d="M81.3608 10.3481V13.4976H82.2642C82.8664 13.4976 83.2936 13.6156 83.5459 13.8516C83.8063 14.0794 83.9365 14.3805 83.9365 14.7549C83.9365 15.1211 83.8063 15.4222 83.5459 15.6582C83.2936 15.8861 82.8664 16 82.2642 16H78.4678C77.8656 16 77.4342 15.8861 77.1738 15.6582C76.9215 15.4222 76.7954 15.117 76.7954 14.7427C76.7954 14.3765 76.9256 14.0794 77.186 13.8516C77.4465 13.6156 77.8737 13.4976 78.4678 13.4976H78.8584V3.70752H78.4678C77.8656 3.70752 77.4342 3.59359 77.1738 3.36572C76.9215 3.12972 76.7954 2.82454 76.7954 2.4502C76.7954 2.07585 76.9215 1.77474 77.1738 1.54688C77.4342 1.31087 77.8656 1.19287 78.4678 1.19287L84.1318 1.20508C85.8978 1.20508 87.265 1.64453 88.2334 2.52344C89.21 3.39421 89.6982 4.45622 89.6982 5.70947C89.6982 6.49072 89.4704 7.2028 89.0146 7.8457C88.5589 8.48047 87.8713 9.04606 86.9517 9.54248C87.4806 10.0063 88.0462 10.6004 88.6484 11.3247C89.0228 11.7886 89.5273 12.5129 90.1621 13.4976C90.7969 13.4976 91.216 13.5627 91.4194 13.6929C91.7856 13.9451 91.9688 14.2992 91.9688 14.7549C91.9688 15.1211 91.8426 15.4222 91.5903 15.6582C91.3381 15.8861 90.9108 16 90.3086 16H88.8804C86.854 12.8669 85.1735 10.9829 83.8389 10.3481H81.3608ZM81.3608 7.8457H83.314C84.0382 7.8457 84.6852 7.73584 85.2549 7.51611C86.0199 7.22314 86.5326 6.9139 86.793 6.58838C87.0615 6.26286 87.1958 5.94141 87.1958 5.62402C87.1958 5.15202 86.9435 4.71663 86.439 4.31787C85.9344 3.91097 85.1979 3.70752 84.2295 3.70752H81.3608V7.8457ZM96.3877 9.82324V13.4976H102.772V12.1426C102.772 11.5404 102.886 11.1131 103.114 10.8608C103.35 10.6004 103.655 10.4702 104.029 10.4702C104.396 10.4702 104.693 10.6004 104.92 10.8608C105.156 11.1131 105.274 11.5404 105.274 12.1426V16H93.4946C92.8924 16 92.4611 15.8861 92.2007 15.6582C91.9484 15.4222 91.8223 15.117 91.8223 14.7427C91.8223 14.3765 91.9525 14.0794 92.2129 13.8516C92.4733 13.6156 92.9006 13.4976 93.4946 13.4976H93.8853V3.70752H93.4946C92.8924 3.70752 92.4611 3.59359 92.2007 3.36572C91.9484 3.12972 91.8223 2.82454 91.8223 2.4502C91.8223 2.07585 91.9484 1.77474 92.2007 1.54688C92.4611 1.31087 92.8924 1.19287 93.4946 1.19287L104.725 1.20508V5.01367C104.725 5.60775 104.611 6.03499 104.383 6.29541C104.155 6.54769 103.854 6.67383 103.48 6.67383C103.106 6.67383 102.8 6.54769 102.564 6.29541C102.337 6.04313 102.223 5.61589 102.223 5.01367V3.70752H96.3877V7.3208H98.585C98.585 6.66976 98.646 6.25065 98.7681 6.06348C99.0203 5.66471 99.3784 5.46533 99.8423 5.46533C100.208 5.46533 100.506 5.59554 100.733 5.85596C100.969 6.10824 101.087 6.53548 101.087 7.1377V10.0186C101.087 10.5638 101.022 10.93 100.892 11.1172C100.632 11.4997 100.282 11.6909 99.8423 11.6909C99.3784 11.6909 99.0203 11.4915 98.7681 11.0928C98.646 10.9056 98.585 10.4824 98.585 9.82324H96.3877ZM117.03 11.9717H110.951L110.34 13.4976H110.951C111.553 13.4976 111.98 13.6156 112.232 13.8516C112.493 14.0794 112.623 14.3805 112.623 14.7549C112.623 15.1211 112.493 15.4222 112.232 15.6582C111.98 15.8861 111.553 16 110.951 16H107.582C106.979 16 106.552 15.8861 106.3 15.6582C106.039 15.4222 105.909 15.117 105.909 14.7427C105.909 14.3683 106.043 14.0632 106.312 13.8271C106.581 13.5911 107.024 13.4813 107.643 13.4976L111.573 3.70752H109.938C109.335 3.70752 108.904 3.59359 108.644 3.36572C108.391 3.12972 108.265 2.82454 108.265 2.4502C108.265 2.07585 108.391 1.77474 108.644 1.54688C108.904 1.31087 109.335 1.19287 109.938 1.19287L115.345 1.20508L120.326 13.4976C120.912 13.4976 121.298 13.5627 121.485 13.6929C121.86 13.9614 122.047 14.3154 122.047 14.7549C122.047 15.1211 121.921 15.4222 121.668 15.6582C121.416 15.8861 120.989 16 120.387 16H117.018C116.415 16 115.984 15.8861 115.724 15.6582C115.471 15.4222 115.345 15.117 115.345 14.7427C115.345 14.3765 115.471 14.0794 115.724 13.8516C115.984 13.6156 116.415 13.4976 117.018 13.4976H117.628L117.03 11.9717ZM115.992 9.46924L113.978 4.51318L111.952 9.46924H115.992ZM127.943 3.70752V13.4976H133.338V11.1294C133.338 10.5272 133.452 10.0999 133.68 9.84766C133.916 9.58724 134.221 9.45703 134.596 9.45703C134.962 9.45703 135.259 9.58724 135.487 9.84766C135.723 10.0999 135.841 10.5272 135.841 11.1294V16H123.988C123.386 16 122.954 15.8861 122.694 15.6582C122.442 15.4222 122.315 15.117 122.315 14.7427C122.315 14.3765 122.442 14.0794 122.694 13.8516C122.954 13.6156 123.386 13.4976 123.988 13.4976H125.44V3.70752H123.988C123.386 3.70752 122.954 3.59359 122.694 3.36572C122.442 3.12972 122.315 2.82454 122.315 2.4502C122.315 2.07585 122.442 1.77474 122.694 1.54688C122.954 1.31087 123.386 1.19287 123.988 1.19287L129.408 1.20508C130.01 1.20508 130.437 1.31901 130.689 1.54688C130.95 1.77474 131.08 2.07585 131.08 2.4502C131.08 2.82454 130.95 3.12972 130.689 3.36572C130.437 3.59359 130.01 3.70752 129.408 3.70752H127.943ZM147.059 11.9717H140.98L140.37 13.4976H140.98C141.582 13.4976 142.009 13.6156 142.262 13.8516C142.522 14.0794 142.652 14.3805 142.652 14.7549C142.652 15.1211 142.522 15.4222 142.262 15.6582C142.009 15.8861 141.582 16 140.98 16H137.611C137.009 16 136.581 15.8861 136.329 15.6582C136.069 15.4222 135.938 15.117 135.938 14.7427C135.938 14.3683 136.073 14.0632 136.341 13.8271C136.61 13.5911 137.053 13.4813 137.672 13.4976L141.603 3.70752H139.967C139.365 3.70752 138.933 3.59359 138.673 3.36572C138.421 3.12972 138.294 2.82454 138.294 2.4502C138.294 2.07585 138.421 1.77474 138.673 1.54688C138.933 1.31087 139.365 1.19287 139.967 1.19287L145.375 1.20508L150.355 13.4976C150.941 13.4976 151.327 13.5627 151.515 13.6929C151.889 13.9614 152.076 14.3154 152.076 14.7549C152.076 15.1211 151.95 15.4222 151.698 15.6582C151.445 15.8861 151.018 16 150.416 16H147.047C146.445 16 146.013 15.8861 145.753 15.6582C145.501 15.4222 145.375 15.117 145.375 14.7427C145.375 14.3765 145.501 14.0794 145.753 13.8516C146.013 13.6156 146.445 13.4976 147.047 13.4976H147.657L147.059 11.9717ZM146.021 9.46924L144.007 4.51318L141.981 9.46924H146.021ZM160.23 3.70752V13.4976H161.915C162.517 13.4976 162.944 13.6156 163.197 13.8516C163.457 14.0794 163.587 14.3805 163.587 14.7549C163.587 15.1211 163.457 15.4222 163.197 15.6582C162.944 15.8861 162.517 16 161.915 16H156.056C155.453 16 155.022 15.8861 154.762 15.6582C154.509 15.4222 154.383 15.117 154.383 14.7427C154.383 14.3765 154.509 14.0794 154.762 13.8516C155.022 13.6156 155.453 13.4976 156.056 13.4976H157.728V3.70752H155.018V6.07568C155.018 6.6779 154.9 7.10921 154.664 7.36963C154.436 7.62191 154.135 7.74805 153.761 7.74805C153.395 7.74805 153.093 7.62191 152.857 7.36963C152.63 7.10921 152.516 6.6779 152.516 6.07568V1.19287L165.479 1.20508V6.07568C165.479 6.6779 165.361 7.10921 165.125 7.36963C164.898 7.62191 164.597 7.74805 164.222 7.74805C163.856 7.74805 163.555 7.62191 163.319 7.36963C163.091 7.10921 162.977 6.6779 162.977 6.07568V3.70752H160.23ZM181.056 8.60254C181.056 10.8242 180.348 12.6756 178.932 14.1567C177.524 15.6297 175.892 16.3662 174.037 16.3662C172.368 16.3662 170.863 15.7518 169.52 14.5229C167.86 13.0011 167.03 11.0277 167.03 8.60254C167.03 6.17741 167.86 4.19987 169.52 2.66992C170.863 1.44108 172.368 0.82666 174.037 0.82666C175.892 0.82666 177.524 1.56722 178.932 3.04834C180.348 4.52132 181.056 6.37272 181.056 8.60254ZM178.553 8.60254C178.553 7.08073 178.093 5.8234 177.174 4.83057C176.254 3.82959 175.208 3.3291 174.037 3.3291C172.873 3.3291 171.831 3.82959 170.912 4.83057C169.992 5.83154 169.532 7.08887 169.532 8.60254C169.532 10.1162 169.992 11.3735 170.912 12.3745C171.831 13.3674 172.873 13.8638 174.037 13.8638C175.208 13.8638 176.254 13.3674 177.174 12.3745C178.093 11.3817 178.553 10.1243 178.553 8.60254ZM186.463 10.3481V13.4976H187.367C187.969 13.4976 188.396 13.6156 188.648 13.8516C188.909 14.0794 189.039 14.3805 189.039 14.7549C189.039 15.1211 188.909 15.4222 188.648 15.6582C188.396 15.8861 187.969 16 187.367 16H183.57C182.968 16 182.537 15.8861 182.276 15.6582C182.024 15.4222 181.898 15.117 181.898 14.7427C181.898 14.3765 182.028 14.0794 182.289 13.8516C182.549 13.6156 182.976 13.4976 183.57 13.4976H183.961V3.70752H183.57C182.968 3.70752 182.537 3.59359 182.276 3.36572C182.024 3.12972 181.898 2.82454 181.898 2.4502C181.898 2.07585 182.024 1.77474 182.276 1.54688C182.537 1.31087 182.968 1.19287 183.57 1.19287L189.234 1.20508C191 1.20508 192.368 1.64453 193.336 2.52344C194.312 3.39421 194.801 4.45622 194.801 5.70947C194.801 6.49072 194.573 7.2028 194.117 7.8457C193.661 8.48047 192.974 9.04606 192.054 9.54248C192.583 10.0063 193.149 10.6004 193.751 11.3247C194.125 11.7886 194.63 12.5129 195.265 13.4976C195.899 13.4976 196.319 13.5627 196.522 13.6929C196.888 13.9451 197.071 14.2992 197.071 14.7549C197.071 15.1211 196.945 15.4222 196.693 15.6582C196.441 15.8861 196.013 16 195.411 16H193.983C191.957 12.8669 190.276 10.9829 188.941 10.3481H186.463ZM186.463 7.8457H188.417C189.141 7.8457 189.788 7.73584 190.357 7.51611C191.122 7.22314 191.635 6.9139 191.896 6.58838C192.164 6.26286 192.298 5.94141 192.298 5.62402C192.298 5.15202 192.046 4.71663 191.542 4.31787C191.037 3.91097 190.3 3.70752 189.332 3.70752H186.463V7.8457Z" fill="#646558"/>
</svg>
